<svg xmlns="http://www.w3.org/2000/svg" width="1000" height="560" viewBox="0 0 1000 560" font-family="Arial, Helvetica, sans-serif">
<title>F-20 Booking requests list</title>
<rect x="0" y="0" width="1000" height="560" rx="0" fill="#fff" stroke="#555"/>
<rect x="0" y="0" width="1000" height="56" rx="0" fill="#f2f2f2" stroke="#999"/>
<text x="24" y="35" font-size="20" font-weight="bold" fill="#333" text-anchor="start">G-Link</text>
<text x="108" y="35" font-size="12" font-weight="normal" fill="#777" text-anchor="start">RUB Guest House Booking</text>
<text x="976" y="35" font-size="12" font-weight="normal" fill="#777" text-anchor="end">Signed in as Admin  ·  Sign out</text>
<rect x="0" y="56" width="200" height="468" rx="0" fill="#f2f2f2" stroke="#999"/>
<text x="20" y="93" font-size="13" font-weight="normal" fill="#333" text-anchor="start">Dashboard</text>
<rect x="8" y="110" width="184" height="32" rx="4" fill="#555" stroke="#555"/>
<text x="20" y="131" font-size="13" font-weight="bold" fill="#fff" text-anchor="start">Booking requests</text>
<text x="20" y="169" font-size="13" font-weight="normal" fill="#333" text-anchor="start">Extension requests</text>
<text x="20" y="207" font-size="13" font-weight="normal" fill="#333" text-anchor="start">International booking</text>
<text x="20" y="245" font-size="13" font-weight="normal" fill="#333" text-anchor="start">Block rooms/beds</text>
<text x="20" y="283" font-size="13" font-weight="normal" fill="#333" text-anchor="start">Change room</text>
<text x="20" y="321" font-size="13" font-weight="normal" fill="#333" text-anchor="start">Rooms &amp; hall</text>
<text x="20" y="359" font-size="13" font-weight="normal" fill="#333" text-anchor="start">Rate table</text>
<text x="230" y="106" font-size="24" font-weight="bold" fill="#333" text-anchor="start">Booking requests</text>
<text x="230.0" y="140" font-size="13" font-weight="bold" fill="#333" text-anchor="start">Status</text><rect x="230.0" y="148" width="236.0" height="36" rx="4" fill="#fff" stroke="#999"/><text x="240.0" y="171" font-size="13" font-weight="normal" fill="#777" text-anchor="start">Pending</text><text x="446.0" y="171" font-size="13" font-weight="normal" fill="#333" text-anchor="start">▾</text><text x="482.0" y="140" font-size="13" font-weight="bold" fill="#333" text-anchor="start">Guest house</text><rect x="482.0" y="148" width="236.0" height="36" rx="4" fill="#fff" stroke="#999"/><text x="492.0" y="171" font-size="13" font-weight="normal" fill="#777" text-anchor="start">All</text><text x="698.0" y="171" font-size="13" font-weight="normal" fill="#333" text-anchor="start">▾</text><text x="734.0" y="140" font-size="13" font-weight="bold" fill="#333" text-anchor="start">Search</text><rect x="734.0" y="148" width="236.0" height="36" rx="4" fill="#fff" stroke="#999"/><text x="744.0" y="171" font-size="13" font-weight="normal" fill="#777" text-anchor="start">Name or ref</text>
<rect x="230" y="200" width="740" height="34" rx="0" fill="#e3e3e3" stroke="#999"/><text x="240.0" y="222" font-size="12" font-weight="bold" fill="#333" text-anchor="start">Ref</text><text x="332.5" y="222" font-size="12" font-weight="bold" fill="#333" text-anchor="start">Guest</text><text x="425.0" y="222" font-size="12" font-weight="bold" fill="#333" text-anchor="start">Room</text><text x="517.5" y="222" font-size="12" font-weight="bold" fill="#333" text-anchor="start">Check-in</text><text x="610.0" y="222" font-size="12" font-weight="bold" fill="#333" text-anchor="start">Check-out</text><text x="702.5" y="222" font-size="12" font-weight="bold" fill="#333" text-anchor="start">Beds</text><text x="795.0" y="222" font-size="12" font-weight="bold" fill="#333" text-anchor="start">Status</text><text x="887.5" y="222" font-size="12" font-weight="bold" fill="#333" text-anchor="start"></text><rect x="230" y="234" width="740" height="34" rx="0" fill="#fff" stroke="#999"/><text x="240.0" y="256" font-size="12" font-weight="normal" fill="#333" text-anchor="start">GL-0012</text><text x="332.5" y="256" font-size="12" font-weight="normal" fill="#333" text-anchor="start">Pema Wangmo</text><text x="425.0" y="256" font-size="12" font-weight="normal" fill="#333" text-anchor="start">A-102</text><text x="517.5" y="256" font-size="12" font-weight="normal" fill="#333" text-anchor="start">12 Oct</text><text x="610.0" y="256" font-size="12" font-weight="normal" fill="#333" text-anchor="start">14 Oct</text><text x="702.5" y="256" font-size="12" font-weight="normal" fill="#333" text-anchor="start">2</text><text x="795.0" y="256" font-size="12" font-weight="normal" fill="#333" text-anchor="start">Pending</text><rect x="885.5" y="240" width="76.5" height="22" rx="4" fill="#fff" stroke="#555"/><text x="891.5" y="255" font-size="11" font-weight="normal" fill="#333" text-anchor="start">Review</text><rect x="230" y="268" width="740" height="34" rx="0" fill="#fff" stroke="#999"/><text x="240.0" y="290" font-size="12" font-weight="normal" fill="#333" text-anchor="start">GL-0013</text><text x="332.5" y="290" font-size="12" font-weight="normal" fill="#333" text-anchor="start">Karma Dorji</text><text x="425.0" y="290" font-size="12" font-weight="normal" fill="#333" text-anchor="start">A-101</text><text x="517.5" y="290" font-size="12" font-weight="normal" fill="#333" text-anchor="start">13 Oct</text><text x="610.0" y="290" font-size="12" font-weight="normal" fill="#333" text-anchor="start">15 Oct</text><text x="702.5" y="290" font-size="12" font-weight="normal" fill="#333" text-anchor="start">1</text><text x="795.0" y="290" font-size="12" font-weight="normal" fill="#333" text-anchor="start">Pending</text><rect x="885.5" y="274" width="76.5" height="22" rx="4" fill="#fff" stroke="#555"/><text x="891.5" y="289" font-size="11" font-weight="normal" fill="#333" text-anchor="start">Review</text><rect x="230" y="302" width="740" height="34" rx="0" fill="#fff" stroke="#999"/><text x="240.0" y="324" font-size="12" font-weight="normal" fill="#333" text-anchor="start">GL-0011</text><text x="332.5" y="324" font-size="12" font-weight="normal" fill="#333" text-anchor="start">Sonam Choden</text><text x="425.0" y="324" font-size="12" font-weight="normal" fill="#333" text-anchor="start">B-201</text><text x="517.5" y="324" font-size="12" font-weight="normal" fill="#333" text-anchor="start">11 Oct</text><text x="610.0" y="324" font-size="12" font-weight="normal" fill="#333" text-anchor="start">12 Oct</text><text x="702.5" y="324" font-size="12" font-weight="normal" fill="#333" text-anchor="start">1</text><text x="795.0" y="324" font-size="12" font-weight="normal" fill="#333" text-anchor="start">Approved</text><rect x="885.5" y="308" width="64" height="22" rx="4" fill="#fff" stroke="#555"/><text x="891.5" y="323" font-size="11" font-weight="normal" fill="#333" text-anchor="start">Open</text>
<rect x="0" y="524" width="1000" height="36" rx="0" fill="#e3e3e3" stroke="#999"/><text x="16" y="547" font-size="12" font-weight="bold" fill="#333" text-anchor="start">F-20 · Booking requests list</text><text x="984" y="547" font-size="12" font-weight="normal" fill="#777" text-anchor="end">Low-fidelity wireframe · G-Link</text>
</svg>
