<svg xmlns="http://www.w3.org/2000/svg" width="1000" height="560" viewBox="0 0 1000 560" font-family="Arial, Helvetica, sans-serif">
<title>F-27 Incharge bookings</title>
<rect x="0" y="0" width="1000" height="560" rx="0" fill="#fff" stroke="#555"/>
<rect x="0" y="0" width="1000" height="56" rx="0" fill="#f2f2f2" stroke="#999"/>
<text x="24" y="35" font-size="20" font-weight="bold" fill="#333" text-anchor="start">G-Link</text>
<text x="108" y="35" font-size="12" font-weight="normal" fill="#777" text-anchor="start">RUB Guest House Booking</text>
<text x="976" y="35" font-size="12" font-weight="normal" fill="#777" text-anchor="end">Signed in as Incharge  ·  Sign out</text>
<rect x="0" y="56" width="200" height="468" rx="0" fill="#f2f2f2" stroke="#999"/>
<rect x="8" y="72" width="184" height="32" rx="4" fill="#555" stroke="#555"/>
<text x="20" y="93" font-size="13" font-weight="bold" fill="#fff" text-anchor="start">Bookings</text>
<text x="20" y="131" font-size="13" font-weight="normal" fill="#333" text-anchor="start">Today</text>
<text x="20" y="169" font-size="13" font-weight="normal" fill="#333" text-anchor="start">Check-in/out</text>
<text x="230" y="106" font-size="24" font-weight="bold" fill="#333" text-anchor="start">Bookings</text>
<rect x="230" y="126" width="75" height="32" rx="4" fill="#fff" stroke="#555"/><text x="267.5" y="147" font-size="12" font-weight="bold" fill="#333" text-anchor="middle">Today</text><rect x="311" y="126" width="111" height="32" rx="4" fill="#555" stroke="#555"/><text x="366.5" y="147" font-size="12" font-weight="bold" fill="#fff" text-anchor="middle">This week</text><rect x="428" y="126" width="138" height="32" rx="4" fill="#fff" stroke="#555"/><text x="497.0" y="147" font-size="12" font-weight="bold" fill="#333" text-anchor="middle">All approved</text>
<rect x="230" y="176" width="740" height="34" rx="0" fill="#e3e3e3" stroke="#999"/><text x="240.0" y="198" font-size="12" font-weight="bold" fill="#333" text-anchor="start">Ref</text><text x="345.7142857142857" y="198" font-size="12" font-weight="bold" fill="#333" text-anchor="start">Guest</text><text x="451.42857142857144" y="198" font-size="12" font-weight="bold" fill="#333" text-anchor="start">Room</text><text x="557.1428571428571" y="198" font-size="12" font-weight="bold" fill="#333" text-anchor="start">Check-in</text><text x="662.8571428571429" y="198" font-size="12" font-weight="bold" fill="#333" text-anchor="start">Check-out</text><text x="768.5714285714286" y="198" font-size="12" font-weight="bold" fill="#333" text-anchor="start">Paid</text><text x="874.2857142857142" y="198" font-size="12" font-weight="bold" fill="#333" text-anchor="start"></text><rect x="230" y="210" width="740" height="34" rx="0" fill="#fff" stroke="#999"/><text x="240.0" y="232" font-size="12" font-weight="normal" fill="#333" text-anchor="start">GL-0011</text><text x="345.7142857142857" y="232" font-size="12" font-weight="normal" fill="#333" text-anchor="start">Sonam Choden</text><text x="451.42857142857144" y="232" font-size="12" font-weight="normal" fill="#333" text-anchor="start">B-201</text><text x="557.1428571428571" y="232" font-size="12" font-weight="normal" fill="#333" text-anchor="start">11 Oct</text><text x="662.8571428571429" y="232" font-size="12" font-weight="normal" fill="#333" text-anchor="start">12 Oct</text><text x="768.5714285714286" y="232" font-size="12" font-weight="normal" fill="#333" text-anchor="start">No</text><rect x="872.2857142857142" y="216" width="64" height="22" rx="4" fill="#fff" stroke="#555"/><text x="878.2857142857142" y="231" font-size="11" font-weight="normal" fill="#333" text-anchor="start">Open</text><rect x="230" y="244" width="740" height="34" rx="0" fill="#fff" stroke="#999"/><text x="240.0" y="266" font-size="12" font-weight="normal" fill="#333" text-anchor="start">GL-0012</text><text x="345.7142857142857" y="266" font-size="12" font-weight="normal" fill="#333" text-anchor="start">Pema Wangmo</text><text x="451.42857142857144" y="266" font-size="12" font-weight="normal" fill="#333" text-anchor="start">A-102</text><text x="557.1428571428571" y="266" font-size="12" font-weight="normal" fill="#333" text-anchor="start">12 Oct</text><text x="662.8571428571429" y="266" font-size="12" font-weight="normal" fill="#333" text-anchor="start">14 Oct</text><text x="768.5714285714286" y="266" font-size="12" font-weight="normal" fill="#333" text-anchor="start">No</text><rect x="872.2857142857142" y="250" width="64" height="22" rx="4" fill="#fff" stroke="#555"/><text x="878.2857142857142" y="265" font-size="11" font-weight="normal" fill="#333" text-anchor="start">Open</text>
<rect x="0" y="524" width="1000" height="36" rx="0" fill="#e3e3e3" stroke="#999"/><text x="16" y="547" font-size="12" font-weight="bold" fill="#333" text-anchor="start">F-27 · Incharge bookings</text><text x="984" y="547" font-size="12" font-weight="normal" fill="#777" text-anchor="end">Low-fidelity wireframe · G-Link</text>
</svg>
