<svg xmlns="http://www.w3.org/2000/svg" width="1000" height="568" viewBox="0 0 1000 568" font-family="Arial, Helvetica, sans-serif">
<title>F-12 Extra guest form</title>
<rect x="0" y="0" width="1000" height="568" rx="0" fill="#fff" stroke="#555"/>
<rect x="0" y="0" width="1000" height="56" rx="0" fill="#f2f2f2" stroke="#999"/>
<text x="24" y="35" font-size="20" font-weight="bold" fill="#333" text-anchor="start">G-Link</text>
<text x="108" y="35" font-size="12" font-weight="normal" fill="#777" text-anchor="start">RUB Guest House Booking</text>
<text x="976" y="35" font-size="12" font-weight="normal" fill="#777" text-anchor="end">Signed in as Guest  ·  Sign out</text>
<rect x="0" y="56" width="200" height="476" rx="0" fill="#f2f2f2" stroke="#999"/>
<rect x="8" y="72" width="184" height="32" rx="4" fill="#555" stroke="#555"/>
<text x="20" y="93" font-size="13" font-weight="bold" fill="#fff" text-anchor="start">Rooms</text>
<text x="20" y="131" font-size="13" font-weight="normal" fill="#333" text-anchor="start">My bookings</text>
<text x="20" y="169" font-size="13" font-weight="normal" fill="#333" text-anchor="start">Meeting hall</text>
<text x="20" y="207" font-size="13" font-weight="normal" fill="#333" text-anchor="start">Profile</text>
<text x="230" y="106" font-size="24" font-weight="bold" fill="#333" text-anchor="start">Who is staying?</text>
<text x="230" y="142" font-size="14" font-weight="normal" fill="#777" text-anchor="start">One bed per person. You are guest 1.</text>
<rect x="230" y="158" width="740" height="62" rx="4" fill="#f2f2f2" stroke="#999"/><text x="244" y="184" font-size="15" font-weight="bold" fill="#333" text-anchor="start">Guest 2</text><text x="244" y="208" font-size="13" font-weight="normal" fill="#333" text-anchor="start">Full name · Gender · CID / passport no. · Phone</text>
<text x="230.0" y="252" font-size="13" font-weight="bold" fill="#333" text-anchor="start">Full name</text><rect x="230.0" y="260" width="362.0" height="36" rx="4" fill="#fff" stroke="#999"/><text x="240.0" y="283" font-size="13" font-weight="normal" fill="#777" text-anchor="start"></text><text x="608.0" y="252" font-size="13" font-weight="bold" fill="#333" text-anchor="start">Gender</text><rect x="608.0" y="260" width="362.0" height="36" rx="4" fill="#fff" stroke="#999"/><text x="618.0" y="283" font-size="13" font-weight="normal" fill="#777" text-anchor="start">Choose…</text><text x="950.0" y="283" font-size="13" font-weight="normal" fill="#333" text-anchor="start">▾</text>
<text x="230.0" y="326" font-size="13" font-weight="bold" fill="#333" text-anchor="start">CID / passport no.</text><rect x="230.0" y="334" width="362.0" height="36" rx="4" fill="#fff" stroke="#999"/><text x="240.0" y="357" font-size="13" font-weight="normal" fill="#777" text-anchor="start"></text><text x="608.0" y="326" font-size="13" font-weight="bold" fill="#333" text-anchor="start">Phone</text><rect x="608.0" y="334" width="362.0" height="36" rx="4" fill="#fff" stroke="#999"/><text x="618.0" y="357" font-size="13" font-weight="normal" fill="#777" text-anchor="start"></text>
<rect x="230" y="386" width="201" height="38" rx="4" fill="#fff" stroke="#555"/><text x="330.5" y="410" font-size="13" font-weight="bold" fill="#333" text-anchor="middle">+ Add another guest</text><rect x="441" y="386" width="90" height="38" rx="4" fill="#a44" stroke="#555"/><text x="486.0" y="410" font-size="13" font-weight="bold" fill="#fff" text-anchor="middle">Remove</text>
<rect x="230" y="442" width="120" height="38" rx="4" fill="#555" stroke="#555"/><text x="290.0" y="466" font-size="13" font-weight="bold" fill="#fff" text-anchor="middle">Next: bill</text><rect x="360" y="442" width="90" height="38" rx="4" fill="#fff" stroke="#555"/><text x="405.0" y="466" font-size="13" font-weight="bold" fill="#333" text-anchor="middle">Back</text>
<rect x="0" y="532" width="1000" height="36" rx="0" fill="#e3e3e3" stroke="#999"/><text x="16" y="555" font-size="12" font-weight="bold" fill="#333" text-anchor="start">F-12 · Extra guest form</text><text x="984" y="555" font-size="12" font-weight="normal" fill="#777" text-anchor="end">Low-fidelity wireframe · G-Link</text>
</svg>
